<mxfile host="app.diagrams.net" modified="2024-05-30T16:10:20.136Z" agent="Mozilla/5.0 (Macintosh; Intel Mac OS X 10_15_7) AppleWebKit/537.36 (KHTML, like Gecko) Chrome/125.0.0.0 Safari/537.36" version="24.4.9" etag="Y1jmUe-ULumOT-kC9kzv" type="github">
  <diagram name="PÃ¡gina-1" id="2EYjQyog4oN20DQlT70O">
    <mxGraphModel>
      <root>
        <mxCell id="0" />
        <mxCell id="1" parent="0" />
      </root>
    </mxGraphModel>
  </diagram>
</mxfile>
